<svg xmlns="http://www.w3.org/2000/svg" xmlns:xlink="http://www.w3.org/1999/xlink" viewBox="0 0 160 160" width="100%" height="100%">
  <defs>
    <style>
<![CDATA[
/* Auto-generated by Compiler */
:root { --dur: 3.500s; }
g { transform-origin: 0 0; }
.lyr_0 { transform: translate(80px, 80px) scale(0.4445, 0.4445) ; }
.lyr_1 { transform: translate(50px, 50px) scale(1, 1) ; }
.lyr_2 { transform: translate(45px, 45px) scale(1, 1) ; }
.lyr_3 { transform: translate(0px, 0px) ; }
@keyframes p_lyr_4 {
  7.14% { transform: translate(50px, 53.5px); animation-timing-function: cubic-bezier(undefined, undefined, undefined, undefined); }
  14.29% { transform: translate(69.938px, 65.562px); animation-timing-function: cubic-bezier(undefined, undefined, undefined, undefined); }
  25.24% { transform: translate(46.75px, 51.125px); animation-timing-function: cubic-bezier(undefined, undefined, undefined, undefined); }
  33.33% { transform: translate(50px, 53.5px); animation-timing-function: cubic-bezier(undefined, undefined, undefined, undefined); }
  35.71% { transform: translate(50px, 53.5px); animation-timing-function: cubic-bezier(undefined, undefined, undefined, undefined); }
  42.86% { transform: translate(61.438px, 60.938px); animation-timing-function: cubic-bezier(undefined, undefined, undefined, undefined); }
  54.29% { transform: translate(48.25px, 52.188px); animation-timing-function: cubic-bezier(undefined, undefined, undefined, undefined); }
  66.19% { transform: translate(50px, 53.5px); animation-timing-function: linear; }
}
.lyr_4 { animation: p_lyr_4 var(--dur) infinite; }
.lyr_5 { transform: translate(0px, 0px) ; }
@keyframes p_lyr_6 {
  21.43% { transform: translate(29px, 36px); animation-timing-function: cubic-bezier(undefined, undefined, undefined, undefined); }
  28.57% { transform: translate(10.75px, 25.75px); animation-timing-function: cubic-bezier(undefined, undefined, undefined, undefined); }
  39.05% { transform: translate(31.375px, 37.75px); animation-timing-function: cubic-bezier(undefined, undefined, undefined, undefined); }
  48.10% { transform: translate(29px, 36px); animation-timing-function: cubic-bezier(undefined, undefined, undefined, undefined); }
  50.00% { transform: translate(29px, 36px); animation-timing-function: cubic-bezier(undefined, undefined, undefined, undefined); }
  57.14% { transform: translate(20px, 29.75px); animation-timing-function: cubic-bezier(undefined, undefined, undefined, undefined); }
  68.10% { transform: translate(31.625px, 37.625px); animation-timing-function: cubic-bezier(undefined, undefined, undefined, undefined); }
  80.95% { transform: translate(29px, 36px); animation-timing-function: linear; }
}
.lyr_6 { animation: p_lyr_6 var(--dur) infinite; }
.lyr_7 { transform: translate(0px, 0px) ; }
@keyframes p_lyr_8 {
  38.10% { transform: translate(46.5px, 22px); animation-timing-function: cubic-bezier(undefined, undefined, undefined, undefined); }
  45.24% { transform: translate(61.5px, 13.25px); animation-timing-function: cubic-bezier(undefined, undefined, undefined, undefined); }
  56.19% { transform: translate(45.062px, 22.812px); animation-timing-function: cubic-bezier(undefined, undefined, undefined, undefined); }
  67.14% { transform: translate(47.125px, 21.625px); animation-timing-function: cubic-bezier(undefined, undefined, undefined, undefined); }
  72.38% { transform: translate(46.5px, 22px); animation-timing-function: linear; }
}
.lyr_8 { animation: p_lyr_8 var(--dur) infinite; }
.lyr_9 { transform: translate(45px, 45px) scale(0.1, 0.1) ; }
@keyframes p_lyr_10 {
  0.00% { transform: translate(0px, 540px); animation-timing-function: cubic-bezier(undefined, undefined, undefined, undefined); }
  42.86% { transform: translate(1920px, 540px); animation-timing-function: cubic-bezier(undefined, undefined, undefined, undefined); }
  43.93% { transform: translate(0px, 540px); animation-timing-function: cubic-bezier(undefined, undefined, undefined, undefined); }
  85.71% { transform: translate(1920px, 540px); animation-timing-function: linear; }
}
.lyr_10 { animation: p_lyr_10 var(--dur) infinite; }
.lyr_11 { transform: translate(1936px, 540px) scale(1, 1) ; }
.lyr_13 { transform: translate(45px, 45px) scale(1, 1) ; }
@keyframes p_lyr_14 {
  38.10% { transform: translate(46.5px, 22px); animation-timing-function: cubic-bezier(undefined, undefined, undefined, undefined); }
  45.24% { transform: translate(61.5px, 13.25px); animation-timing-function: cubic-bezier(undefined, undefined, undefined, undefined); }
  56.19% { transform: translate(45.062px, 22.812px); animation-timing-function: cubic-bezier(undefined, undefined, undefined, undefined); }
  67.14% { transform: translate(47.125px, 21.625px); animation-timing-function: cubic-bezier(undefined, undefined, undefined, undefined); }
  72.38% { transform: translate(46.5px, 22px); animation-timing-function: linear; }
}
.lyr_14 { animation: p_lyr_14 var(--dur) infinite; }
.lyr_15 { transform: translate(0px, 0px) ; }
@keyframes p_lyr_16 {
  21.43% { transform: translate(29px, 36px); animation-timing-function: cubic-bezier(undefined, undefined, undefined, undefined); }
  28.57% { transform: translate(10.75px, 25.75px); animation-timing-function: cubic-bezier(undefined, undefined, undefined, undefined); }
  39.05% { transform: translate(31.375px, 37.75px); animation-timing-function: cubic-bezier(undefined, undefined, undefined, undefined); }
  48.10% { transform: translate(29px, 36px); animation-timing-function: cubic-bezier(undefined, undefined, undefined, undefined); }
  50.00% { transform: translate(29px, 36px); animation-timing-function: cubic-bezier(undefined, undefined, undefined, undefined); }
  57.14% { transform: translate(20px, 29.75px); animation-timing-function: cubic-bezier(undefined, undefined, undefined, undefined); }
  68.10% { transform: translate(31.625px, 37.625px); animation-timing-function: cubic-bezier(undefined, undefined, undefined, undefined); }
  80.95% { transform: translate(29px, 36px); animation-timing-function: linear; }
}
.lyr_16 { animation: p_lyr_16 var(--dur) infinite; }
.lyr_17 { transform: translate(0px, 0px) ; }
@keyframes p_lyr_18 {
  7.14% { transform: translate(50px, 53.5px); animation-timing-function: cubic-bezier(undefined, undefined, undefined, undefined); }
  14.29% { transform: translate(69.938px, 65.562px); animation-timing-function: cubic-bezier(undefined, undefined, undefined, undefined); }
  25.24% { transform: translate(46.75px, 51.125px); animation-timing-function: cubic-bezier(undefined, undefined, undefined, undefined); }
  33.33% { transform: translate(50px, 53.5px); animation-timing-function: cubic-bezier(undefined, undefined, undefined, undefined); }
  35.71% { transform: translate(50px, 53.5px); animation-timing-function: cubic-bezier(undefined, undefined, undefined, undefined); }
  42.86% { transform: translate(61.438px, 60.938px); animation-timing-function: cubic-bezier(undefined, undefined, undefined, undefined); }
  54.29% { transform: translate(48.25px, 52.188px); animation-timing-function: cubic-bezier(undefined, undefined, undefined, undefined); }
  66.19% { transform: translate(50px, 53.5px); animation-timing-function: linear; }
}
.lyr_18 { animation: p_lyr_18 var(--dur) infinite; }
.lyr_19 { transform: translate(0px, 0px) ; }
.lyr_20 { transform: translate(180px, 180px) scale(4, 4) ; }

]]>
    </style>
    
<mask id="mask_12" style="mask-type: alpha;">
  <g class="lyr_9">
    
  <g class="lyr_10">
    
  <g class="lyr_11">
    <g>
<style> path { fill: url(#iridescent-grad); } </style>

</g>
  </g>
  </g>
  </g>
</mask>
  </defs>
  
  <g class="lyr_0">
    
  <g class="lyr_1">
    
  <g class="lyr_2">
    
  <g class="lyr_3">
    <g>
<path d="M 1.403 -18.106 C 1.247 -18.765, 0.677 -19.25, 0 -19.25 C -0.678 -19.25, -1.249 -18.764, -1.405 -18.105 C -1.405 -18.105, -2.027 -15.478, -2.027 -15.478 C -2.963 -11.532, -3.4299999999999997 -9.558, -4.443 -7.957 C -5.3389999999999995 -6.542, -6.538 -5.342, -7.953 -4.446 C -9.553 -3.433, -11.527000000000001 -2.964, -15.473 -2.028 C -15.473 -2.028, -18.105 -1.404, -18.105 -1.404 C -18.764 -1.248, -19.25 -0.678, -19.25 0 C -19.25 0.677, -18.765 1.247, -18.106 1.403 C -18.106 1.403, -15.473 2.028, -15.473 2.028 C -11.527000000000001 2.964, -9.553 3.433, -7.953 4.446 C -6.538 5.342, -5.3389999999999995 6.542, -4.443 7.957 C -3.4299999999999997 9.558, -2.963 11.532, -2.027 15.478 C -2.027 15.478, -1.405 18.104, -1.405 18.104 C -1.249 18.762999999999998, -0.678 19.25, 0 19.25 C 0.677 19.25, 1.248 18.764, 1.404 18.105 C 1.404 18.105, 2.027 15.478, 2.027 15.478 C 2.963 11.532, 3.4299999999999997 9.558, 4.443 7.957 C 5.3389999999999995 6.542, 6.538 5.342, 7.953 4.446 C 9.553 3.433, 11.527000000000001 2.964, 15.473 2.028 C 15.473 2.028, 18.105 1.403, 18.105 1.403 C 18.764 1.247, 19.25 0.677, 19.25 0 C 19.25 -0.678, 18.762 -1.249, 18.103 -1.405 C 18.103 -1.405, 15.473 -2.028, 15.473 -2.028 C 11.527000000000001 -2.964, 9.553 -3.433, 7.953 -4.446 C 6.538 -5.342, 5.3389999999999995 -6.542, 4.443 -7.957 C 3.4299999999999997 -9.558, 2.963 -11.532, 2.027 -15.478 C 2.027 -15.478, 1.403 -18.106, 1.403 -18.106 Z" />
<style> path { fill: rgb(NaN,NaN,NaN); } </style>

</g>
  </g>
  <g class="lyr_4">
    <g>
<path d="M 1.17 -18.106 C 1.04 -18.765, 0.565 -19.25, 0 -19.25 C -0.565 -19.25, -1.041 -18.764, -1.171 -18.105 C -1.171 -18.105, -1.69 -15.478, -1.69 -15.478 C -2.4699999999999998 -11.532, -2.45 -9.558, -3.173 -7.957 C -3.813 -6.542, -6.375 -1.562, -6.375 0 C -6.375 1.562, -3.813 6.542, -3.173 7.957 C -2.45 9.558, -2.4699999999999998 11.532, -1.69 15.478 C -1.69 15.478, -1.171 18.104, -1.171 18.104 C -1.041 18.762999999999998, -0.565 19.25, 0 19.25 C 0.565 19.25, 1.04 18.764, 1.17 18.105 C 1.17 18.105, 1.69 15.478, 1.69 15.478 C 2.4699999999999998 11.532, 2.45 9.558, 3.173 7.957 C 3.813 6.542, 6.375 1.688, 6.375 0 C 6.375 -1.688, 3.813 -6.542, 3.173 -7.957 C 2.45 -9.558, 2.4699999999999998 -11.532, 1.69 -15.478 C 1.69 -15.478, 1.17 -18.106, 1.17 -18.106 Z" />
<style> path { fill: rgb(NaN,NaN,NaN); } </style>

</g>
  </g>
  <g class="lyr_5">
    <g>
<path d="M 1.403 -18.106 C 1.247 -18.765, 0.677 -19.25, 0 -19.25 C -0.678 -19.25, -1.249 -18.764, -1.405 -18.105 C -1.405 -18.105, -2.027 -15.478, -2.027 -15.478 C -2.963 -11.532, -3.4299999999999997 -9.558, -4.443 -7.957 C -5.3389999999999995 -6.542, -6.538 -5.342, -7.953 -4.446 C -9.553 -3.433, -11.527000000000001 -2.964, -15.473 -2.028 C -15.473 -2.028, -18.105 -1.404, -18.105 -1.404 C -18.764 -1.248, -19.25 -0.678, -19.25 0 C -19.25 0.677, -18.765 1.247, -18.106 1.403 C -18.106 1.403, -15.473 2.028, -15.473 2.028 C -11.527000000000001 2.964, -9.553 3.433, -7.953 4.446 C -6.538 5.342, -5.3389999999999995 6.542, -4.443 7.957 C -3.4299999999999997 9.558, -2.963 11.532, -2.027 15.478 C -2.027 15.478, -1.405 18.104, -1.405 18.104 C -1.249 18.762999999999998, -0.678 19.25, 0 19.25 C 0.677 19.25, 1.248 18.764, 1.404 18.105 C 1.404 18.105, 2.027 15.478, 2.027 15.478 C 2.963 11.532, 3.4299999999999997 9.558, 4.443 7.957 C 5.3389999999999995 6.542, 6.538 5.342, 7.953 4.446 C 9.553 3.433, 11.527000000000001 2.964, 15.473 2.028 C 15.473 2.028, 18.105 1.403, 18.105 1.403 C 18.764 1.247, 19.25 0.677, 19.25 0 C 19.25 -0.678, 18.762 -1.249, 18.103 -1.405 C 18.103 -1.405, 15.473 -2.028, 15.473 -2.028 C 11.527000000000001 -2.964, 9.553 -3.433, 7.953 -4.446 C 6.538 -5.342, 5.3389999999999995 -6.542, 4.443 -7.957 C 3.4299999999999997 -9.558, 2.963 -11.532, 2.027 -15.478 C 2.027 -15.478, 1.403 -18.106, 1.403 -18.106 Z" />
<style> path { fill: rgb(NaN,NaN,NaN); } </style>

</g>
  </g>
  <g class="lyr_6">
    <g>
<path d="M 1.17 -18.106 C 1.04 -18.765, 0.565 -19.25, 0 -19.25 C -0.565 -19.25, -1.041 -18.764, -1.171 -18.105 C -1.171 -18.105, -1.69 -15.478, -1.69 -15.478 C -2.4699999999999998 -11.532, -2.45 -9.558, -3.173 -7.957 C -3.813 -6.542, -6.375 -1.562, -6.375 0 C -6.375 1.562, -3.813 6.542, -3.173 7.957 C -2.45 9.558, -2.4699999999999998 11.532, -1.69 15.478 C -1.69 15.478, -1.171 18.104, -1.171 18.104 C -1.041 18.762999999999998, -0.565 19.25, 0 19.25 C 0.565 19.25, 1.04 18.764, 1.17 18.105 C 1.17 18.105, 1.69 15.478, 1.69 15.478 C 2.4699999999999998 11.532, 2.45 9.558, 3.173 7.957 C 3.813 6.542, 6.375 1.688, 6.375 0 C 6.375 -1.688, 3.813 -6.542, 3.173 -7.957 C 2.45 -9.558, 2.4699999999999998 -11.532, 1.69 -15.478 C 1.69 -15.478, 1.17 -18.106, 1.17 -18.106 Z" />
<style> path { fill: rgb(NaN,NaN,NaN); } </style>

</g>
  </g>
  <g class="lyr_7">
    <g>
<path d="M 1.403 -18.106 C 1.247 -18.765, 0.677 -19.25, 0 -19.25 C -0.678 -19.25, -1.249 -18.764, -1.405 -18.105 C -1.405 -18.105, -2.027 -15.478, -2.027 -15.478 C -2.963 -11.532, -3.4299999999999997 -9.558, -4.443 -7.957 C -5.3389999999999995 -6.542, -6.538 -5.342, -7.953 -4.446 C -9.553 -3.433, -11.527000000000001 -2.964, -15.473 -2.028 C -15.473 -2.028, -18.105 -1.404, -18.105 -1.404 C -18.764 -1.248, -19.25 -0.678, -19.25 0 C -19.25 0.677, -18.765 1.247, -18.106 1.403 C -18.106 1.403, -15.473 2.028, -15.473 2.028 C -11.527000000000001 2.964, -9.553 3.433, -7.953 4.446 C -6.538 5.342, -5.3389999999999995 6.542, -4.443 7.957 C -3.4299999999999997 9.558, -2.963 11.532, -2.027 15.478 C -2.027 15.478, -1.405 18.104, -1.405 18.104 C -1.249 18.762999999999998, -0.678 19.25, 0 19.25 C 0.677 19.25, 1.248 18.764, 1.404 18.105 C 1.404 18.105, 2.027 15.478, 2.027 15.478 C 2.963 11.532, 3.4299999999999997 9.558, 4.443 7.957 C 5.3389999999999995 6.542, 6.538 5.342, 7.953 4.446 C 9.553 3.433, 11.527000000000001 2.964, 15.473 2.028 C 15.473 2.028, 18.105 1.403, 18.105 1.403 C 18.764 1.247, 19.25 0.677, 19.25 0 C 19.25 -0.678, 18.762 -1.249, 18.103 -1.405 C 18.103 -1.405, 15.473 -2.028, 15.473 -2.028 C 11.527000000000001 -2.964, 9.553 -3.433, 7.953 -4.446 C 6.538 -5.342, 5.3389999999999995 -6.542, 4.443 -7.957 C 3.4299999999999997 -9.558, 2.963 -11.532, 2.027 -15.478 C 2.027 -15.478, 1.403 -18.106, 1.403 -18.106 Z" />
<style> path { fill: rgb(NaN,NaN,NaN); } </style>

</g>
  </g>
  <g class="lyr_8">
    <g>
<path d="M 1.17 -18.106 C 1.04 -18.765, 0.565 -19.25, 0 -19.25 C -0.565 -19.25, -1.041 -18.764, -1.171 -18.105 C -1.171 -18.105, -1.69 -15.478, -1.69 -15.478 C -2.4699999999999998 -11.532, -2.45 -9.558, -3.173 -7.957 C -3.813 -6.542, -6.375 -1.562, -6.375 0 C -6.375 1.562, -3.813 6.542, -3.173 7.957 C -2.45 9.558, -2.4699999999999998 11.532, -1.69 15.478 C -1.69 15.478, -1.171 18.104, -1.171 18.104 C -1.041 18.762999999999998, -0.565 19.25, 0 19.25 C 0.565 19.25, 1.04 18.764, 1.17 18.105 C 1.17 18.105, 1.69 15.478, 1.69 15.478 C 2.4699999999999998 11.532, 2.45 9.558, 3.173 7.957 C 3.813 6.542, 6.375 1.688, 6.375 0 C 6.375 -1.688, 3.813 -6.542, 3.173 -7.957 C 2.45 -9.558, 2.4699999999999998 -11.532, 1.69 -15.478 C 1.69 -15.478, 1.17 -18.106, 1.17 -18.106 Z" />
<style> path { fill: rgb(NaN,NaN,NaN); } </style>

</g>
  </g>
  </g>
  <g class="lyr_13" mask="url(#mask_12)">
    
  <g class="lyr_14">
    <g>
<path d="M 1.17 -18.106 C 1.04 -18.765, 0.565 -19.25, 0 -19.25 C -0.565 -19.25, -1.041 -18.764, -1.171 -18.105 C -1.171 -18.105, -1.69 -15.478, -1.69 -15.478 C -2.4699999999999998 -11.532, -2.45 -9.558, -3.173 -7.957 C -3.813 -6.542, -6.375 -1.562, -6.375 0 C -6.375 1.562, -3.813 6.542, -3.173 7.957 C -2.45 9.558, -2.4699999999999998 11.532, -1.69 15.478 C -1.69 15.478, -1.171 18.104, -1.171 18.104 C -1.041 18.762999999999998, -0.565 19.25, 0 19.25 C 0.565 19.25, 1.04 18.764, 1.17 18.105 C 1.17 18.105, 1.69 15.478, 1.69 15.478 C 2.4699999999999998 11.532, 2.45 9.558, 3.173 7.957 C 3.813 6.542, 6.375 1.688, 6.375 0 C 6.375 -1.688, 3.813 -6.542, 3.173 -7.957 C 2.45 -9.558, 2.4699999999999998 -11.532, 1.69 -15.478 C 1.69 -15.478, 1.17 -18.106, 1.17 -18.106 Z" />
<style> path { fill: rgb(NaN,NaN,NaN); } </style>

</g>
  </g>
  <g class="lyr_15">
    <g>
<path d="M 1.403 -18.106 C 1.247 -18.765, 0.677 -19.25, 0 -19.25 C -0.678 -19.25, -1.249 -18.764, -1.405 -18.105 C -1.405 -18.105, -2.027 -15.478, -2.027 -15.478 C -2.963 -11.532, -3.4299999999999997 -9.558, -4.443 -7.957 C -5.3389999999999995 -6.542, -6.538 -5.342, -7.953 -4.446 C -9.553 -3.433, -11.527000000000001 -2.964, -15.473 -2.028 C -15.473 -2.028, -18.105 -1.404, -18.105 -1.404 C -18.764 -1.248, -19.25 -0.678, -19.25 0 C -19.25 0.677, -18.765 1.247, -18.106 1.403 C -18.106 1.403, -15.473 2.028, -15.473 2.028 C -11.527000000000001 2.964, -9.553 3.433, -7.953 4.446 C -6.538 5.342, -5.3389999999999995 6.542, -4.443 7.957 C -3.4299999999999997 9.558, -2.963 11.532, -2.027 15.478 C -2.027 15.478, -1.405 18.104, -1.405 18.104 C -1.249 18.762999999999998, -0.678 19.25, 0 19.25 C 0.677 19.25, 1.248 18.764, 1.404 18.105 C 1.404 18.105, 2.027 15.478, 2.027 15.478 C 2.963 11.532, 3.4299999999999997 9.558, 4.443 7.957 C 5.3389999999999995 6.542, 6.538 5.342, 7.953 4.446 C 9.553 3.433, 11.527000000000001 2.964, 15.473 2.028 C 15.473 2.028, 18.105 1.403, 18.105 1.403 C 18.764 1.247, 19.25 0.677, 19.25 0 C 19.25 -0.678, 18.762 -1.249, 18.103 -1.405 C 18.103 -1.405, 15.473 -2.028, 15.473 -2.028 C 11.527000000000001 -2.964, 9.553 -3.433, 7.953 -4.446 C 6.538 -5.342, 5.3389999999999995 -6.542, 4.443 -7.957 C 3.4299999999999997 -9.558, 2.963 -11.532, 2.027 -15.478 C 2.027 -15.478, 1.403 -18.106, 1.403 -18.106 Z" />
<style> path { fill: rgb(NaN,NaN,NaN); } </style>

</g>
  </g>
  <g class="lyr_16">
    <g>
<path d="M 1.17 -18.106 C 1.04 -18.765, 0.565 -19.25, 0 -19.25 C -0.565 -19.25, -1.041 -18.764, -1.171 -18.105 C -1.171 -18.105, -1.69 -15.478, -1.69 -15.478 C -2.4699999999999998 -11.532, -2.45 -9.558, -3.173 -7.957 C -3.813 -6.542, -6.375 -1.562, -6.375 0 C -6.375 1.562, -3.813 6.542, -3.173 7.957 C -2.45 9.558, -2.4699999999999998 11.532, -1.69 15.478 C -1.69 15.478, -1.171 18.104, -1.171 18.104 C -1.041 18.762999999999998, -0.565 19.25, 0 19.25 C 0.565 19.25, 1.04 18.764, 1.17 18.105 C 1.17 18.105, 1.69 15.478, 1.69 15.478 C 2.4699999999999998 11.532, 2.45 9.558, 3.173 7.957 C 3.813 6.542, 6.375 1.688, 6.375 0 C 6.375 -1.688, 3.813 -6.542, 3.173 -7.957 C 2.45 -9.558, 2.4699999999999998 -11.532, 1.69 -15.478 C 1.69 -15.478, 1.17 -18.106, 1.17 -18.106 Z" />
<style> path { fill: rgb(NaN,NaN,NaN); } </style>

</g>
  </g>
  <g class="lyr_17">
    <g>
<path d="M 1.403 -18.106 C 1.247 -18.765, 0.677 -19.25, 0 -19.25 C -0.678 -19.25, -1.249 -18.764, -1.405 -18.105 C -1.405 -18.105, -2.027 -15.478, -2.027 -15.478 C -2.963 -11.532, -3.4299999999999997 -9.558, -4.443 -7.957 C -5.3389999999999995 -6.542, -6.538 -5.342, -7.953 -4.446 C -9.553 -3.433, -11.527000000000001 -2.964, -15.473 -2.028 C -15.473 -2.028, -18.105 -1.404, -18.105 -1.404 C -18.764 -1.248, -19.25 -0.678, -19.25 0 C -19.25 0.677, -18.765 1.247, -18.106 1.403 C -18.106 1.403, -15.473 2.028, -15.473 2.028 C -11.527000000000001 2.964, -9.553 3.433, -7.953 4.446 C -6.538 5.342, -5.3389999999999995 6.542, -4.443 7.957 C -3.4299999999999997 9.558, -2.963 11.532, -2.027 15.478 C -2.027 15.478, -1.405 18.104, -1.405 18.104 C -1.249 18.762999999999998, -0.678 19.25, 0 19.25 C 0.677 19.25, 1.248 18.764, 1.404 18.105 C 1.404 18.105, 2.027 15.478, 2.027 15.478 C 2.963 11.532, 3.4299999999999997 9.558, 4.443 7.957 C 5.3389999999999995 6.542, 6.538 5.342, 7.953 4.446 C 9.553 3.433, 11.527000000000001 2.964, 15.473 2.028 C 15.473 2.028, 18.105 1.403, 18.105 1.403 C 18.764 1.247, 19.25 0.677, 19.25 0 C 19.25 -0.678, 18.762 -1.249, 18.103 -1.405 C 18.103 -1.405, 15.473 -2.028, 15.473 -2.028 C 11.527000000000001 -2.964, 9.553 -3.433, 7.953 -4.446 C 6.538 -5.342, 5.3389999999999995 -6.542, 4.443 -7.957 C 3.4299999999999997 -9.558, 2.963 -11.532, 2.027 -15.478 C 2.027 -15.478, 1.403 -18.106, 1.403 -18.106 Z" />
<style> path { fill: rgb(NaN,NaN,NaN); } </style>

</g>
  </g>
  <g class="lyr_18">
    <g>
<path d="M 1.17 -18.106 C 1.04 -18.765, 0.565 -19.25, 0 -19.25 C -0.565 -19.25, -1.041 -18.764, -1.171 -18.105 C -1.171 -18.105, -1.69 -15.478, -1.69 -15.478 C -2.4699999999999998 -11.532, -2.45 -9.558, -3.173 -7.957 C -3.813 -6.542, -6.375 -1.562, -6.375 0 C -6.375 1.562, -3.813 6.542, -3.173 7.957 C -2.45 9.558, -2.4699999999999998 11.532, -1.69 15.478 C -1.69 15.478, -1.171 18.104, -1.171 18.104 C -1.041 18.762999999999998, -0.565 19.25, 0 19.25 C 0.565 19.25, 1.04 18.764, 1.17 18.105 C 1.17 18.105, 1.69 15.478, 1.69 15.478 C 2.4699999999999998 11.532, 2.45 9.558, 3.173 7.957 C 3.813 6.542, 6.375 1.688, 6.375 0 C 6.375 -1.688, 3.813 -6.542, 3.173 -7.957 C 2.45 -9.558, 2.4699999999999998 -11.532, 1.69 -15.478 C 1.69 -15.478, 1.17 -18.106, 1.17 -18.106 Z" />
<style> path { fill: rgb(NaN,NaN,NaN); } </style>

</g>
  </g>
  <g class="lyr_19">
    <g>
<path d="M 1.403 -18.106 C 1.247 -18.765, 0.677 -19.25, 0 -19.25 C -0.678 -19.25, -1.249 -18.764, -1.405 -18.105 C -1.405 -18.105, -2.027 -15.478, -2.027 -15.478 C -2.963 -11.532, -3.4299999999999997 -9.558, -4.443 -7.957 C -5.3389999999999995 -6.542, -6.538 -5.342, -7.953 -4.446 C -9.553 -3.433, -11.527000000000001 -2.964, -15.473 -2.028 C -15.473 -2.028, -18.105 -1.404, -18.105 -1.404 C -18.764 -1.248, -19.25 -0.678, -19.25 0 C -19.25 0.677, -18.765 1.247, -18.106 1.403 C -18.106 1.403, -15.473 2.028, -15.473 2.028 C -11.527000000000001 2.964, -9.553 3.433, -7.953 4.446 C -6.538 5.342, -5.3389999999999995 6.542, -4.443 7.957 C -3.4299999999999997 9.558, -2.963 11.532, -2.027 15.478 C -2.027 15.478, -1.405 18.104, -1.405 18.104 C -1.249 18.762999999999998, -0.678 19.25, 0 19.25 C 0.677 19.25, 1.248 18.764, 1.404 18.105 C 1.404 18.105, 2.027 15.478, 2.027 15.478 C 2.963 11.532, 3.4299999999999997 9.558, 4.443 7.957 C 5.3389999999999995 6.542, 6.538 5.342, 7.953 4.446 C 9.553 3.433, 11.527000000000001 2.964, 15.473 2.028 C 15.473 2.028, 18.105 1.403, 18.105 1.403 C 18.764 1.247, 19.25 0.677, 19.25 0 C 19.25 -0.678, 18.762 -1.249, 18.103 -1.405 C 18.103 -1.405, 15.473 -2.028, 15.473 -2.028 C 11.527000000000001 -2.964, 9.553 -3.433, 7.953 -4.446 C 6.538 -5.342, 5.3389999999999995 -6.542, 4.443 -7.957 C 3.4299999999999997 -9.558, 2.963 -11.532, 2.027 -15.478 C 2.027 -15.478, 1.403 -18.106, 1.403 -18.106 Z" />
<style> path { fill: rgb(NaN,NaN,NaN); } </style>

</g>
  </g>
  </g>
  </g>
  <g class="lyr_20">
    
  </g>
  </g>
</svg>