<svg xmlns="http://www.w3.org/2000/svg" viewBox="0 0 160 160" width="100%" height="100%"><defs><mask id="mask_0" maskUnits="userSpaceOnUse" maskContentUnits="userSpaceOnUse" style="mask-type: alpha;"><g transform="matrix(1 0 0 1 0 0)"><g transform="translate(50 53.5)"><animateTransform attributeName="transform" type="translate" dur="3.500s" repeatCount="indefinite" calcMode="spline" keyTimes="0;.071;.143;.252;.333;.357;.429;.543;.662;1" values="50 53.5;50 53.5;69.938 65.562;46.75 51.125;50 53.5;50 53.5;61.438 60.938;48.25 52.188;50 53.5;50 53.5" keySplines="0 0 1 1;.333 .361 .521 1;.503 0 .452 1;.333 0 .667 1;.167 .167 .833 .833;.333 .403 .521 1;.503 0 .467 1;.333 0 .667 1;0 0 1 1" /><g transform="scale(1 1)"><animateTransform attributeName="transform" type="scale" dur="3.500s" repeatCount="indefinite" calcMode="spline" keyTimes="0;.071;.143;.214;.357;.429;.5;1" values="1 1;1 1;1.19 1.19;1 1;1 1;1.08 1.08;1 1;1 1" keySplines="0 0 1 1;.333 0 .667 1;.333 0 .667 1;.297 0 .667 1;.333 0 .667 1;.333 0 .667 1;0 0 1 1" /><g transform="scale(1 1)"><animateTransform attributeName="transform" type="scale" dur="3.500s" repeatCount="indefinite" calcMode="spline" keyTimes="0;.071;.138;.148;.214;.357;.429;.5;1" values="1 1;1 1;.77 1;.77 1;1 1;1 1;.23 1;1 1;1 1" keySplines="0 0 1 1;.333 0 .667 1;.167 .167 .833 .833;.333 0 .667 1;.167 .167 .833 .833;1 0 .667 1;.333 0 0 1;0 0 1 1" /><g fill="#8350f2"><animate attributeName="fill" dur="3.500s" repeatCount="indefinite" calcMode="spline" keyTimes="0;.071;.214;.357;.429;.5;1" values="#8350f2;#8350f2;#8350f2;#8350f2;#b596f7;#8350f2;#8350f2" keySplines=".333 0 .833 1;.333 0 .667 1;.185 0 .833 1;.333 0 .667 1;.333 0 .667 1;0 0 1 1" /><path d="M1.403-18.106C1.247-18.765 .677-19.25 0-19.25C-.678-19.25-1.249-18.764-1.405-18.105C-1.405-18.105-2.027-15.478-2.027-15.478C-2.963-11.532-3.43-9.558-4.443-7.957C-5.339-6.542-6.538-5.342-7.953-4.446C-9.553-3.433-11.527-2.964-15.473-2.028C-15.473-2.028-18.105-1.404-18.105-1.404C-18.764-1.248-19.25-.678-19.25 0C-19.25 .677-18.765 1.247-18.106 1.403C-18.106 1.403-15.473 2.028-15.473 2.028C-11.527 2.964-9.553 3.433-7.953 4.446C-6.538 5.342-5.339 6.542-4.443 7.957C-3.43 9.558-2.963 11.532-2.027 15.478C-2.027 15.478-1.405 18.104-1.405 18.104C-1.249 18.763-.678 19.25 0 19.25C.677 19.25 1.248 18.764 1.404 18.105C1.404 18.105 2.027 15.478 2.027 15.478C2.963 11.532 3.43 9.558 4.443 7.957C5.339 6.542 6.538 5.342 7.953 4.446C9.553 3.433 11.527 2.964 15.473 2.028C15.473 2.028 18.105 1.403 18.105 1.403C18.764 1.247 19.25 .677 19.25 0C19.25-.678 18.762-1.249 18.103-1.405C18.103-1.405 15.473-2.028 15.473-2.028C11.527-2.964 9.553-3.433 7.953-4.446C6.538-5.342 5.339-6.542 4.443-7.957C3.43-9.558 2.963-11.532 2.027-15.478C2.027-15.478 1.403-18.106 1.403-18.106Z"></path></g></g></g></g><g transform="translate(50 53.5)"><animateTransform attributeName="transform" type="translate" dur="3.500s" repeatCount="indefinite" calcMode="spline" keyTimes="0;.071;.143;.252;.333;.357;.429;.543;.662;1" values="50 53.5;50 53.5;69.938 65.562;46.75 51.125;50 53.5;50 53.5;61.438 60.938;48.25 52.188;50 53.5;50 53.5" keySplines="0 0 1 1;.333 .361 .521 1;.503 0 .452 1;.333 0 .667 1;.167 .167 .833 .833;.333 .403 .521 1;.503 0 .467 1;.333 0 .667 1;0 0 1 1" /><g transform="scale(1 1)"><animateTransform attributeName="transform" type="scale" dur="3.500s" repeatCount="indefinite" calcMode="spline" keyTimes="0;.071;.143;.214;.357;.429;.5;1" values="1 1;1 1;1.19 1.19;1 1;1 1;1.08 1.08;1 1;1 1" keySplines="0 0 1 1;.333 0 .667 1;.333 0 .667 1;.297 0 .667 1;.333 0 .667 1;.333 0 .667 1;0 0 1 1" /><g fill="#8350f2"><animate attributeName="fill" dur="3.500s" repeatCount="indefinite" calcMode="spline" keyTimes="0;.071;.214;.357;.429;.5;1" values="#8350f2;#8350f2;#8350f2;#8350f2;#b596f7;#8350f2;#8350f2" keySplines=".333 0 .833 1;.333 0 .667 1;.185 0 .833 1;.333 0 .667 1;.333 0 .667 1;0 0 1 1" /><path d="M1.17-18.106C1.04-18.765 .565-19.25 0-19.25C-.565-19.25-1.041-18.764-1.171-18.105C-1.171-18.105-1.69-15.478-1.69-15.478C-2.47-11.532-2.45-9.558-3.173-7.957C-3.813-6.542-6.375-1.562-6.375 0C-6.375 1.562-3.813 6.542-3.173 7.957C-2.45 9.558-2.47 11.532-1.69 15.478C-1.69 15.478-1.171 18.104-1.171 18.104C-1.041 18.763-.565 19.25 0 19.25C.565 19.25 1.04 18.764 1.17 18.105C1.17 18.105 1.69 15.478 1.69 15.478C2.47 11.532 2.45 9.558 3.173 7.957C3.813 6.542 6.375 1.688 6.375 0C6.375-1.688 3.813-6.542 3.173-7.957C2.45-9.558 2.47-11.532 1.69-15.478C1.69-15.478 1.17-18.106 1.17-18.106Z"></path></g></g></g><g transform="translate(29 36)"><animateTransform attributeName="transform" type="translate" dur="3.500s" repeatCount="indefinite" keyTimes="0;.214;.219;.223;.228;.241;.246;.25;.254;.259;.263;.268;.272;.277;.281;.286;.295;.299;.304;.308;.313;.317;.321;.339;.344;.348;.353;.357;.361;.365;.374;.382;.39;.402;.413;.458;.47;.481;.5;.518;.522;.527;.531;.536;.54;.545;.554;.563;.571;.58;.589;.598;.607;.616;.643;.652;.657;.662;.667;.671;.681;.697;.713;.761;.777;.793;.81;1" values="29 36;29 36;27.791 35.321;26.316 34.492;24.588 33.522;18.745 30.24;16.978 29.248;15.446 28.387;14.167 27.669;13.132 27.088;12.321 26.632;11.706 26.287;11.262 26.038;10.967 25.872;10.802 25.779;10.75 25.75;10.936 25.858;11.199 26.011;11.612 26.251;12.215 26.602;13.065 27.097;14.234 27.777;15.805 28.691;24.533 33.769;26.179 34.727;27.479 35.483;28.499 36.076;29.296 36.54;29.88 36.88;30.338 37.147;30.96 37.508;31.28 37.695;31.375 37.75;31.235 37.647;30.926 37.419;29.336 36.248;29.103 36.076;29 36;29 36;24.752 33.05;23.771 32.368;22.905 31.767;22.176 31.261;21.586 30.851;21.12 30.528;20.761 30.279;20.293 29.953;20.064 29.795;20 29.75;20.123 29.834;20.519 30.102;21.225 30.58;22.266 31.285;23.635 32.213;28.557 35.547;29.941 36.484;30.479 36.848;30.908 37.139;31.232 37.359;31.455 37.51;31.625 37.625;31.516 37.557;31.191 37.356;29.65 36.402;29.283 36.175;29.068 36.042;29 36;29 36" /><g transform="scale(.6 .6)"><animateTransform attributeName="transform" type="scale" dur="3.500s" repeatCount="indefinite" calcMode="spline" keyTimes="0;.214;.286;.357;.5;.571;.643;1" values=".6 .6;.6 .6;.82 .82;.6 .6;.6 .6;.7 .7;.6 .6;.6 .6" keySplines="0 0 1 1;.333 0 .667 1;.333 0 .667 1;.297 0 .667 1;.333 0 .667 1;.333 0 .667 1;0 0 1 1" /><g transform="scale(1 1)"><animateTransform attributeName="transform" type="scale" dur="3.500s" repeatCount="indefinite" calcMode="spline" keyTimes="0;.214;.286;.357;.5;.571;.643;1" values="1 1;1 1;.27 1;1 1;1 1;.27 1;1 1;1 1" keySplines="0 0 1 1;1 0 .667 1;.333 0 0 1;.167 .167 .833 .833;1 0 .667 1;.333 0 0 1;0 0 1 1" /><g fill="#b596f7"><animate attributeName="fill" dur="3.500s" repeatCount="indefinite" calcMode="spline" keyTimes="0;.214;.286;.357;.5;.571;.643;1" values="#b596f7;#b596f7;#8350f2;#b596f7;#b596f7;#8350f2;#b596f7;#b596f7" keySplines="0 0 1 1;.333 0 .667 1;.333 0 .667 1;.185 0 .833 1;.333 0 .667 1;.333 0 .667 1;0 0 1 1" /><path d="M1.403-18.106C1.247-18.765 .677-19.25 0-19.25C-.678-19.25-1.249-18.764-1.405-18.105C-1.405-18.105-2.027-15.478-2.027-15.478C-2.963-11.532-3.43-9.558-4.443-7.957C-5.339-6.542-6.538-5.342-7.953-4.446C-9.553-3.433-11.527-2.964-15.473-2.028C-15.473-2.028-18.105-1.404-18.105-1.404C-18.764-1.248-19.25-.678-19.25 0C-19.25 .677-18.765 1.247-18.106 1.403C-18.106 1.403-15.473 2.028-15.473 2.028C-11.527 2.964-9.553 3.433-7.953 4.446C-6.538 5.342-5.339 6.542-4.443 7.957C-3.43 9.558-2.963 11.532-2.027 15.478C-2.027 15.478-1.405 18.104-1.405 18.104C-1.249 18.763-.678 19.25 0 19.25C.677 19.25 1.248 18.764 1.404 18.105C1.404 18.105 2.027 15.478 2.027 15.478C2.963 11.532 3.43 9.558 4.443 7.957C5.339 6.542 6.538 5.342 7.953 4.446C9.553 3.433 11.527 2.964 15.473 2.028C15.473 2.028 18.105 1.403 18.105 1.403C18.764 1.247 19.25 .677 19.25 0C19.25-.678 18.762-1.249 18.103-1.405C18.103-1.405 15.473-2.028 15.473-2.028C11.527-2.964 9.553-3.433 7.953-4.446C6.538-5.342 5.339-6.542 4.443-7.957C3.43-9.558 2.963-11.532 2.027-15.478C2.027-15.478 1.403-18.106 1.403-18.106Z"></path></g></g></g></g><g transform="translate(29 36)"><animateTransform attributeName="transform" type="translate" dur="3.500s" repeatCount="indefinite" keyTimes="0;.214;.219;.223;.228;.241;.246;.25;.254;.259;.263;.268;.272;.277;.281;.286;.295;.299;.304;.308;.313;.317;.321;.339;.344;.348;.353;.357;.361;.365;.374;.382;.39;.402;.413;.458;.47;.481;.5;.518;.522;.527;.531;.536;.54;.545;.554;.563;.571;.58;.589;.598;.607;.616;.643;.652;.657;.662;.667;.671;.681;.697;.713;.761;.777;.793;.81;1" values="29 36;29 36;27.791 35.321;26.316 34.492;24.588 33.522;18.745 30.24;16.978 29.248;15.446 28.387;14.167 27.669;13.132 27.088;12.321 26.632;11.706 26.287;11.262 26.038;10.967 25.872;10.802 25.779;10.75 25.75;10.936 25.858;11.199 26.011;11.612 26.251;12.215 26.602;13.065 27.097;14.234 27.777;15.805 28.691;24.533 33.769;26.179 34.727;27.479 35.483;28.499 36.076;29.296 36.54;29.88 36.88;30.338 37.147;30.96 37.508;31.28 37.695;31.375 37.75;31.235 37.647;30.926 37.419;29.336 36.248;29.103 36.076;29 36;29 36;24.752 33.05;23.771 32.368;22.905 31.767;22.176 31.261;21.586 30.851;21.12 30.528;20.761 30.279;20.293 29.953;20.064 29.795;20 29.75;20.123 29.834;20.519 30.102;21.225 30.58;22.266 31.285;23.635 32.213;28.557 35.547;29.941 36.484;30.479 36.848;30.908 37.139;31.232 37.359;31.455 37.51;31.625 37.625;31.516 37.557;31.191 37.356;29.65 36.402;29.283 36.175;29.068 36.042;29 36;29 36" /><g transform="scale(.6 .6)"><animateTransform attributeName="transform" type="scale" dur="3.500s" repeatCount="indefinite" calcMode="spline" keyTimes="0;.214;.286;.357;.5;.571;.643;1" values=".6 .6;.6 .6;.82 .82;.6 .6;.6 .6;.7 .7;.6 .6;.6 .6" keySplines="0 0 1 1;.333 0 .667 1;.333 0 .667 1;.297 0 .667 1;.333 0 .667 1;.333 0 .667 1;0 0 1 1" /><g fill="#b596f7"><animate attributeName="fill" dur="3.500s" repeatCount="indefinite" calcMode="spline" keyTimes="0;.214;.286;.357;.5;.571;.643;1" values="#b596f7;#b596f7;#8350f2;#b596f7;#b596f7;#8350f2;#b596f7;#b596f7" keySplines="0 0 1 1;.333 0 .667 1;.333 0 .667 1;.185 0 .833 1;.333 0 .667 1;.333 0 .667 1;0 0 1 1" /><path d="M1.17-18.106C1.04-18.765 .565-19.25 0-19.25C-.565-19.25-1.041-18.764-1.171-18.105C-1.171-18.105-1.69-15.478-1.69-15.478C-2.47-11.532-2.45-9.558-3.173-7.957C-3.813-6.542-6.375-1.562-6.375 0C-6.375 1.562-3.813 6.542-3.173 7.957C-2.45 9.558-2.47 11.532-1.69 15.478C-1.69 15.478-1.171 18.104-1.171 18.104C-1.041 18.763-.565 19.25 0 19.25C.565 19.25 1.04 18.764 1.17 18.105C1.17 18.105 1.69 15.478 1.69 15.478C2.47 11.532 2.45 9.558 3.173 7.957C3.813 6.542 6.375 1.688 6.375 0C6.375-1.688 3.813-6.542 3.173-7.957C2.45-9.558 2.47-11.532 1.69-15.478C1.69-15.478 1.17-18.106 1.17-18.106Z"></path></g></g></g><g transform="translate(46.5 22)"><animateTransform attributeName="transform" type="translate" dur="3.500s" repeatCount="indefinite" calcMode="spline" keyTimes="0;.381;.452;.562;.671;.724;1" values="46.5 22;46.5 22;61.5 13.25;45.062 22.812;47.125 21.625;46.5 22;46.5 22" keySplines="0 0 1 1;.333 .178 .667 1;.333 0 .259 1;.69 0 .288 1;.752 0 .387 1;0 0 1 1" /><g transform="scale(.3 .3)"><animateTransform attributeName="transform" type="scale" dur="3.500s" repeatCount="indefinite" calcMode="spline" keyTimes="0;.381;.452;.524;1" values=".3 .3;.3 .3;.6 .6;.3 .3;.3 .3" keySplines="0 0 1 1;.333 0 .667 1;.333 0 .667 1;0 0 1 1" /><g transform="scale(1 1)"><animateTransform attributeName="transform" type="scale" dur="3.500s" repeatCount="indefinite" calcMode="spline" keyTimes="0;.381;.452;.524;1" values="1 1;1 1;.22 1;1 1;1 1" keySplines="0 0 1 1;.693 0 .667 1;.333 0 .321 1;0 0 1 1" /><g fill="#dacafb"><animate attributeName="fill" dur="3.500s" repeatCount="indefinite" calcMode="spline" keyTimes="0;.381;.452;.524;1" values="#dacafb;#dacafb;#8350f2;#dacafb;#dacafb" keySplines="0 0 1 1;.333 0 .667 1;.333 0 .667 1;0 0 1 1" /><path d="M1.403-18.106C1.247-18.765 .677-19.25 0-19.25C-.678-19.25-1.249-18.764-1.405-18.105C-1.405-18.105-2.027-15.478-2.027-15.478C-2.963-11.532-3.43-9.558-4.443-7.957C-5.339-6.542-6.538-5.342-7.953-4.446C-9.553-3.433-11.527-2.964-15.473-2.028C-15.473-2.028-18.105-1.404-18.105-1.404C-18.764-1.248-19.25-.678-19.25 0C-19.25 .677-18.765 1.247-18.106 1.403C-18.106 1.403-15.473 2.028-15.473 2.028C-11.527 2.964-9.553 3.433-7.953 4.446C-6.538 5.342-5.339 6.542-4.443 7.957C-3.43 9.558-2.963 11.532-2.027 15.478C-2.027 15.478-1.405 18.104-1.405 18.104C-1.249 18.763-.678 19.25 0 19.25C.677 19.25 1.248 18.764 1.404 18.105C1.404 18.105 2.027 15.478 2.027 15.478C2.963 11.532 3.43 9.558 4.443 7.957C5.339 6.542 6.538 5.342 7.953 4.446C9.553 3.433 11.527 2.964 15.473 2.028C15.473 2.028 18.105 1.403 18.105 1.403C18.764 1.247 19.25 .677 19.25 0C19.25-.678 18.762-1.249 18.103-1.405C18.103-1.405 15.473-2.028 15.473-2.028C11.527-2.964 9.553-3.433 7.953-4.446C6.538-5.342 5.339-6.542 4.443-7.957C3.43-9.558 2.963-11.532 2.027-15.478C2.027-15.478 1.403-18.106 1.403-18.106Z"></path></g></g></g></g><g transform="translate(46.5 22)"><animateTransform attributeName="transform" type="translate" dur="3.500s" repeatCount="indefinite" calcMode="spline" keyTimes="0;.381;.452;.562;.671;.724;1" values="46.5 22;46.5 22;61.5 13.25;45.062 22.812;47.125 21.625;46.5 22;46.5 22" keySplines="0 0 1 1;.333 .178 .667 1;.333 0 .259 1;.69 0 .288 1;.752 0 .387 1;0 0 1 1" /><g transform="scale(.3 .3)"><animateTransform attributeName="transform" type="scale" dur="3.500s" repeatCount="indefinite" calcMode="spline" keyTimes="0;.381;.452;.524;1" values=".3 .3;.3 .3;.6 .6;.3 .3;.3 .3" keySplines="0 0 1 1;.333 0 .667 1;.333 0 .667 1;0 0 1 1" /><g fill="#dacafb"><animate attributeName="fill" dur="3.500s" repeatCount="indefinite" calcMode="spline" keyTimes="0;.381;.452;.524;1" values="#dacafb;#dacafb;#8350f2;#dacafb;#dacafb" keySplines="0 0 1 1;.333 0 .667 1;.333 0 .667 1;0 0 1 1" /><path d="M1.17-18.106C1.04-18.765 .565-19.25 0-19.25C-.565-19.25-1.041-18.764-1.171-18.105C-1.171-18.105-1.69-15.478-1.69-15.478C-2.47-11.532-2.45-9.558-3.173-7.957C-3.813-6.542-6.375-1.562-6.375 0C-6.375 1.562-3.813 6.542-3.173 7.957C-2.45 9.558-2.47 11.532-1.69 15.478C-1.69 15.478-1.171 18.104-1.171 18.104C-1.041 18.763-.565 19.25 0 19.25C.565 19.25 1.04 18.764 1.17 18.105C1.17 18.105 1.69 15.478 1.69 15.478C2.47 11.532 2.45 9.558 3.173 7.957C3.813 6.542 6.375 1.688 6.375 0C6.375-1.688 3.813-6.542 3.173-7.957C2.45-9.558 2.47-11.532 1.69-15.478C1.69-15.478 1.17-18.106 1.17-18.106Z"></path></g></g></g></g></mask><linearGradient id="grad_1" gradientUnits="userSpaceOnUse" x1="-1920" y1="-540" x2="1920" y2="540"><stop offset="0%" stop-color="#6e73f8"></stop><stop offset="12.385%" stop-color="#ed9eff"></stop><stop offset="24.771%" stop-color="#88a0ff"></stop><stop offset="38.073%" stop-color="#ed9eff"></stop><stop offset="51.835%" stop-color="#b975e9"></stop><stop offset="63.761%" stop-color="#ed9eff"></stop><stop offset="75.688%" stop-color="#88a0ff"></stop><stop offset="88.073%" stop-color="#ed9eff"></stop><stop offset="100%" stop-color="#6e73f8"></stop></linearGradient></defs><g transform="matrix(.445 0 0 .445 -.01 -.01)"><g transform="matrix(4 0 0 4 -20 -20)"><g opacity="1"><animate attributeName="opacity" dur="3.500s" repeatCount="indefinite" calcMode="discrete" keyTimes="0;1" values="1;0" /><g transform="matrix(1 0 0 1 5 5)"><g transform="matrix(1 0 0 1 0 0)"><g transform="translate(50 53.5)"><animateTransform attributeName="transform" type="translate" dur="3.500s" repeatCount="indefinite" calcMode="spline" keyTimes="0;.071;.143;.252;.333;.357;.429;.543;.662;1" values="50 53.5;50 53.5;69.938 65.562;46.75 51.125;50 53.5;50 53.5;61.438 60.938;48.25 52.188;50 53.5;50 53.5" keySplines="0 0 1 1;.333 .361 .521 1;.503 0 .452 1;.333 0 .667 1;.167 .167 .833 .833;.333 .403 .521 1;.503 0 .467 1;.333 0 .667 1;0 0 1 1" /><g transform="scale(1 1)"><animateTransform attributeName="transform" type="scale" dur="3.500s" repeatCount="indefinite" calcMode="spline" keyTimes="0;.071;.143;.214;.357;.429;.5;1" values="1 1;1 1;1.19 1.19;1 1;1 1;1.08 1.08;1 1;1 1" keySplines="0 0 1 1;.333 0 .667 1;.333 0 .667 1;.297 0 .667 1;.333 0 .667 1;.333 0 .667 1;0 0 1 1" /><g transform="scale(1 1)"><animateTransform attributeName="transform" type="scale" dur="3.500s" repeatCount="indefinite" calcMode="spline" keyTimes="0;.071;.138;.148;.214;.357;.429;.5;1" values="1 1;1 1;.77 1;.77 1;1 1;1 1;.23 1;1 1;1 1" keySplines="0 0 1 1;.333 0 .667 1;.167 .167 .833 .833;.333 0 .667 1;.167 .167 .833 .833;1 0 .667 1;.333 0 0 1;0 0 1 1" /><g fill="#8350f2"><animate attributeName="fill" dur="3.500s" repeatCount="indefinite" calcMode="spline" keyTimes="0;.071;.214;.357;.429;.5;1" values="#8350f2;#8350f2;#8350f2;#8350f2;#b596f7;#8350f2;#8350f2" keySplines=".333 0 .833 1;.333 0 .667 1;.185 0 .833 1;.333 0 .667 1;.333 0 .667 1;0 0 1 1" /><path d="M1.403-18.106C1.247-18.765 .677-19.25 0-19.25C-.678-19.25-1.249-18.764-1.405-18.105C-1.405-18.105-2.027-15.478-2.027-15.478C-2.963-11.532-3.43-9.558-4.443-7.957C-5.339-6.542-6.538-5.342-7.953-4.446C-9.553-3.433-11.527-2.964-15.473-2.028C-15.473-2.028-18.105-1.404-18.105-1.404C-18.764-1.248-19.25-.678-19.25 0C-19.25 .677-18.765 1.247-18.106 1.403C-18.106 1.403-15.473 2.028-15.473 2.028C-11.527 2.964-9.553 3.433-7.953 4.446C-6.538 5.342-5.339 6.542-4.443 7.957C-3.43 9.558-2.963 11.532-2.027 15.478C-2.027 15.478-1.405 18.104-1.405 18.104C-1.249 18.763-.678 19.25 0 19.25C.677 19.25 1.248 18.764 1.404 18.105C1.404 18.105 2.027 15.478 2.027 15.478C2.963 11.532 3.43 9.558 4.443 7.957C5.339 6.542 6.538 5.342 7.953 4.446C9.553 3.433 11.527 2.964 15.473 2.028C15.473 2.028 18.105 1.403 18.105 1.403C18.764 1.247 19.25 .677 19.25 0C19.25-.678 18.762-1.249 18.103-1.405C18.103-1.405 15.473-2.028 15.473-2.028C11.527-2.964 9.553-3.433 7.953-4.446C6.538-5.342 5.339-6.542 4.443-7.957C3.43-9.558 2.963-11.532 2.027-15.478C2.027-15.478 1.403-18.106 1.403-18.106Z"></path></g></g></g></g><g transform="translate(50 53.5)"><animateTransform attributeName="transform" type="translate" dur="3.500s" repeatCount="indefinite" calcMode="spline" keyTimes="0;.071;.143;.252;.333;.357;.429;.543;.662;1" values="50 53.5;50 53.5;69.938 65.562;46.75 51.125;50 53.5;50 53.5;61.438 60.938;48.25 52.188;50 53.5;50 53.5" keySplines="0 0 1 1;.333 .361 .521 1;.503 0 .452 1;.333 0 .667 1;.167 .167 .833 .833;.333 .403 .521 1;.503 0 .467 1;.333 0 .667 1;0 0 1 1" /><g transform="scale(1 1)"><animateTransform attributeName="transform" type="scale" dur="3.500s" repeatCount="indefinite" calcMode="spline" keyTimes="0;.071;.143;.214;.357;.429;.5;1" values="1 1;1 1;1.19 1.19;1 1;1 1;1.08 1.08;1 1;1 1" keySplines="0 0 1 1;.333 0 .667 1;.333 0 .667 1;.297 0 .667 1;.333 0 .667 1;.333 0 .667 1;0 0 1 1" /><g fill="#8350f2"><animate attributeName="fill" dur="3.500s" repeatCount="indefinite" calcMode="spline" keyTimes="0;.071;.214;.357;.429;.5;1" values="#8350f2;#8350f2;#8350f2;#8350f2;#b596f7;#8350f2;#8350f2" keySplines=".333 0 .833 1;.333 0 .667 1;.185 0 .833 1;.333 0 .667 1;.333 0 .667 1;0 0 1 1" /><path d="M1.17-18.106C1.04-18.765 .565-19.25 0-19.25C-.565-19.25-1.041-18.764-1.171-18.105C-1.171-18.105-1.69-15.478-1.69-15.478C-2.47-11.532-2.45-9.558-3.173-7.957C-3.813-6.542-6.375-1.562-6.375 0C-6.375 1.562-3.813 6.542-3.173 7.957C-2.45 9.558-2.47 11.532-1.69 15.478C-1.69 15.478-1.171 18.104-1.171 18.104C-1.041 18.763-.565 19.25 0 19.25C.565 19.25 1.04 18.764 1.17 18.105C1.17 18.105 1.69 15.478 1.69 15.478C2.47 11.532 2.45 9.558 3.173 7.957C3.813 6.542 6.375 1.688 6.375 0C6.375-1.688 3.813-6.542 3.173-7.957C2.45-9.558 2.47-11.532 1.69-15.478C1.69-15.478 1.17-18.106 1.17-18.106Z"></path></g></g></g><g transform="translate(29 36)"><animateTransform attributeName="transform" type="translate" dur="3.500s" repeatCount="indefinite" keyTimes="0;.214;.219;.223;.228;.241;.246;.25;.254;.259;.263;.268;.272;.277;.281;.286;.295;.299;.304;.308;.313;.317;.321;.339;.344;.348;.353;.357;.361;.365;.374;.382;.39;.402;.413;.458;.47;.481;.5;.518;.522;.527;.531;.536;.54;.545;.554;.563;.571;.58;.589;.598;.607;.616;.643;.652;.657;.662;.667;.671;.681;.697;.713;.761;.777;.793;.81;1" values="29 36;29 36;27.791 35.321;26.316 34.492;24.588 33.522;18.745 30.24;16.978 29.248;15.446 28.387;14.167 27.669;13.132 27.088;12.321 26.632;11.706 26.287;11.262 26.038;10.967 25.872;10.802 25.779;10.75 25.75;10.936 25.858;11.199 26.011;11.612 26.251;12.215 26.602;13.065 27.097;14.234 27.777;15.805 28.691;24.533 33.769;26.179 34.727;27.479 35.483;28.499 36.076;29.296 36.54;29.88 36.88;30.338 37.147;30.96 37.508;31.28 37.695;31.375 37.75;31.235 37.647;30.926 37.419;29.336 36.248;29.103 36.076;29 36;29 36;24.752 33.05;23.771 32.368;22.905 31.767;22.176 31.261;21.586 30.851;21.12 30.528;20.761 30.279;20.293 29.953;20.064 29.795;20 29.75;20.123 29.834;20.519 30.102;21.225 30.58;22.266 31.285;23.635 32.213;28.557 35.547;29.941 36.484;30.479 36.848;30.908 37.139;31.232 37.359;31.455 37.51;31.625 37.625;31.516 37.557;31.191 37.356;29.65 36.402;29.283 36.175;29.068 36.042;29 36;29 36" /><g transform="scale(.6 .6)"><animateTransform attributeName="transform" type="scale" dur="3.500s" repeatCount="indefinite" calcMode="spline" keyTimes="0;.214;.286;.357;.5;.571;.643;1" values=".6 .6;.6 .6;.82 .82;.6 .6;.6 .6;.7 .7;.6 .6;.6 .6" keySplines="0 0 1 1;.333 0 .667 1;.333 0 .667 1;.297 0 .667 1;.333 0 .667 1;.333 0 .667 1;0 0 1 1" /><g transform="scale(1 1)"><animateTransform attributeName="transform" type="scale" dur="3.500s" repeatCount="indefinite" calcMode="spline" keyTimes="0;.214;.286;.357;.5;.571;.643;1" values="1 1;1 1;.27 1;1 1;1 1;.27 1;1 1;1 1" keySplines="0 0 1 1;1 0 .667 1;.333 0 0 1;.167 .167 .833 .833;1 0 .667 1;.333 0 0 1;0 0 1 1" /><g fill="#b596f7"><animate attributeName="fill" dur="3.500s" repeatCount="indefinite" calcMode="spline" keyTimes="0;.214;.286;.357;.5;.571;.643;1" values="#b596f7;#b596f7;#8350f2;#b596f7;#b596f7;#8350f2;#b596f7;#b596f7" keySplines="0 0 1 1;.333 0 .667 1;.333 0 .667 1;.185 0 .833 1;.333 0 .667 1;.333 0 .667 1;0 0 1 1" /><path d="M1.403-18.106C1.247-18.765 .677-19.25 0-19.25C-.678-19.25-1.249-18.764-1.405-18.105C-1.405-18.105-2.027-15.478-2.027-15.478C-2.963-11.532-3.43-9.558-4.443-7.957C-5.339-6.542-6.538-5.342-7.953-4.446C-9.553-3.433-11.527-2.964-15.473-2.028C-15.473-2.028-18.105-1.404-18.105-1.404C-18.764-1.248-19.25-.678-19.25 0C-19.25 .677-18.765 1.247-18.106 1.403C-18.106 1.403-15.473 2.028-15.473 2.028C-11.527 2.964-9.553 3.433-7.953 4.446C-6.538 5.342-5.339 6.542-4.443 7.957C-3.43 9.558-2.963 11.532-2.027 15.478C-2.027 15.478-1.405 18.104-1.405 18.104C-1.249 18.763-.678 19.25 0 19.25C.677 19.25 1.248 18.764 1.404 18.105C1.404 18.105 2.027 15.478 2.027 15.478C2.963 11.532 3.43 9.558 4.443 7.957C5.339 6.542 6.538 5.342 7.953 4.446C9.553 3.433 11.527 2.964 15.473 2.028C15.473 2.028 18.105 1.403 18.105 1.403C18.764 1.247 19.25 .677 19.25 0C19.25-.678 18.762-1.249 18.103-1.405C18.103-1.405 15.473-2.028 15.473-2.028C11.527-2.964 9.553-3.433 7.953-4.446C6.538-5.342 5.339-6.542 4.443-7.957C3.43-9.558 2.963-11.532 2.027-15.478C2.027-15.478 1.403-18.106 1.403-18.106Z"></path></g></g></g></g><g transform="translate(29 36)"><animateTransform attributeName="transform" type="translate" dur="3.500s" repeatCount="indefinite" keyTimes="0;.214;.219;.223;.228;.241;.246;.25;.254;.259;.263;.268;.272;.277;.281;.286;.295;.299;.304;.308;.313;.317;.321;.339;.344;.348;.353;.357;.361;.365;.374;.382;.39;.402;.413;.458;.47;.481;.5;.518;.522;.527;.531;.536;.54;.545;.554;.563;.571;.58;.589;.598;.607;.616;.643;.652;.657;.662;.667;.671;.681;.697;.713;.761;.777;.793;.81;1" values="29 36;29 36;27.791 35.321;26.316 34.492;24.588 33.522;18.745 30.24;16.978 29.248;15.446 28.387;14.167 27.669;13.132 27.088;12.321 26.632;11.706 26.287;11.262 26.038;10.967 25.872;10.802 25.779;10.75 25.75;10.936 25.858;11.199 26.011;11.612 26.251;12.215 26.602;13.065 27.097;14.234 27.777;15.805 28.691;24.533 33.769;26.179 34.727;27.479 35.483;28.499 36.076;29.296 36.54;29.88 36.88;30.338 37.147;30.96 37.508;31.28 37.695;31.375 37.75;31.235 37.647;30.926 37.419;29.336 36.248;29.103 36.076;29 36;29 36;24.752 33.05;23.771 32.368;22.905 31.767;22.176 31.261;21.586 30.851;21.12 30.528;20.761 30.279;20.293 29.953;20.064 29.795;20 29.75;20.123 29.834;20.519 30.102;21.225 30.58;22.266 31.285;23.635 32.213;28.557 35.547;29.941 36.484;30.479 36.848;30.908 37.139;31.232 37.359;31.455 37.51;31.625 37.625;31.516 37.557;31.191 37.356;29.65 36.402;29.283 36.175;29.068 36.042;29 36;29 36" /><g transform="scale(.6 .6)"><animateTransform attributeName="transform" type="scale" dur="3.500s" repeatCount="indefinite" calcMode="spline" keyTimes="0;.214;.286;.357;.5;.571;.643;1" values=".6 .6;.6 .6;.82 .82;.6 .6;.6 .6;.7 .7;.6 .6;.6 .6" keySplines="0 0 1 1;.333 0 .667 1;.333 0 .667 1;.297 0 .667 1;.333 0 .667 1;.333 0 .667 1;0 0 1 1" /><g fill="#b596f7"><animate attributeName="fill" dur="3.500s" repeatCount="indefinite" calcMode="spline" keyTimes="0;.214;.286;.357;.5;.571;.643;1" values="#b596f7;#b596f7;#8350f2;#b596f7;#b596f7;#8350f2;#b596f7;#b596f7" keySplines="0 0 1 1;.333 0 .667 1;.333 0 .667 1;.185 0 .833 1;.333 0 .667 1;.333 0 .667 1;0 0 1 1" /><path d="M1.17-18.106C1.04-18.765 .565-19.25 0-19.25C-.565-19.25-1.041-18.764-1.171-18.105C-1.171-18.105-1.69-15.478-1.69-15.478C-2.47-11.532-2.45-9.558-3.173-7.957C-3.813-6.542-6.375-1.562-6.375 0C-6.375 1.562-3.813 6.542-3.173 7.957C-2.45 9.558-2.47 11.532-1.69 15.478C-1.69 15.478-1.171 18.104-1.171 18.104C-1.041 18.763-.565 19.25 0 19.25C.565 19.25 1.04 18.764 1.17 18.105C1.17 18.105 1.69 15.478 1.69 15.478C2.47 11.532 2.45 9.558 3.173 7.957C3.813 6.542 6.375 1.688 6.375 0C6.375-1.688 3.813-6.542 3.173-7.957C2.45-9.558 2.47-11.532 1.69-15.478C1.69-15.478 1.17-18.106 1.17-18.106Z"></path></g></g></g><g transform="translate(46.5 22)"><animateTransform attributeName="transform" type="translate" dur="3.500s" repeatCount="indefinite" calcMode="spline" keyTimes="0;.381;.452;.562;.671;.724;1" values="46.5 22;46.5 22;61.5 13.25;45.062 22.812;47.125 21.625;46.5 22;46.5 22" keySplines="0 0 1 1;.333 .178 .667 1;.333 0 .259 1;.69 0 .288 1;.752 0 .387 1;0 0 1 1" /><g transform="scale(.3 .3)"><animateTransform attributeName="transform" type="scale" dur="3.500s" repeatCount="indefinite" calcMode="spline" keyTimes="0;.381;.452;.524;1" values=".3 .3;.3 .3;.6 .6;.3 .3;.3 .3" keySplines="0 0 1 1;.333 0 .667 1;.333 0 .667 1;0 0 1 1" /><g transform="scale(1 1)"><animateTransform attributeName="transform" type="scale" dur="3.500s" repeatCount="indefinite" calcMode="spline" keyTimes="0;.381;.452;.524;1" values="1 1;1 1;.22 1;1 1;1 1" keySplines="0 0 1 1;.693 0 .667 1;.333 0 .321 1;0 0 1 1" /><g fill="#dacafb"><animate attributeName="fill" dur="3.500s" repeatCount="indefinite" calcMode="spline" keyTimes="0;.381;.452;.524;1" values="#dacafb;#dacafb;#8350f2;#dacafb;#dacafb" keySplines="0 0 1 1;.333 0 .667 1;.333 0 .667 1;0 0 1 1" /><path d="M1.403-18.106C1.247-18.765 .677-19.25 0-19.25C-.678-19.25-1.249-18.764-1.405-18.105C-1.405-18.105-2.027-15.478-2.027-15.478C-2.963-11.532-3.43-9.558-4.443-7.957C-5.339-6.542-6.538-5.342-7.953-4.446C-9.553-3.433-11.527-2.964-15.473-2.028C-15.473-2.028-18.105-1.404-18.105-1.404C-18.764-1.248-19.25-.678-19.25 0C-19.25 .677-18.765 1.247-18.106 1.403C-18.106 1.403-15.473 2.028-15.473 2.028C-11.527 2.964-9.553 3.433-7.953 4.446C-6.538 5.342-5.339 6.542-4.443 7.957C-3.43 9.558-2.963 11.532-2.027 15.478C-2.027 15.478-1.405 18.104-1.405 18.104C-1.249 18.763-.678 19.25 0 19.25C.677 19.25 1.248 18.764 1.404 18.105C1.404 18.105 2.027 15.478 2.027 15.478C2.963 11.532 3.43 9.558 4.443 7.957C5.339 6.542 6.538 5.342 7.953 4.446C9.553 3.433 11.527 2.964 15.473 2.028C15.473 2.028 18.105 1.403 18.105 1.403C18.764 1.247 19.25 .677 19.25 0C19.25-.678 18.762-1.249 18.103-1.405C18.103-1.405 15.473-2.028 15.473-2.028C11.527-2.964 9.553-3.433 7.953-4.446C6.538-5.342 5.339-6.542 4.443-7.957C3.43-9.558 2.963-11.532 2.027-15.478C2.027-15.478 1.403-18.106 1.403-18.106Z"></path></g></g></g></g><g transform="translate(46.5 22)"><animateTransform attributeName="transform" type="translate" dur="3.500s" repeatCount="indefinite" calcMode="spline" keyTimes="0;.381;.452;.562;.671;.724;1" values="46.5 22;46.5 22;61.5 13.25;45.062 22.812;47.125 21.625;46.5 22;46.5 22" keySplines="0 0 1 1;.333 .178 .667 1;.333 0 .259 1;.69 0 .288 1;.752 0 .387 1;0 0 1 1" /><g transform="scale(.3 .3)"><animateTransform attributeName="transform" type="scale" dur="3.500s" repeatCount="indefinite" calcMode="spline" keyTimes="0;.381;.452;.524;1" values=".3 .3;.3 .3;.6 .6;.3 .3;.3 .3" keySplines="0 0 1 1;.333 0 .667 1;.333 0 .667 1;0 0 1 1" /><g fill="#dacafb"><animate attributeName="fill" dur="3.500s" repeatCount="indefinite" calcMode="spline" keyTimes="0;.381;.452;.524;1" values="#dacafb;#dacafb;#8350f2;#dacafb;#dacafb" keySplines="0 0 1 1;.333 0 .667 1;.333 0 .667 1;0 0 1 1" /><path d="M1.17-18.106C1.04-18.765 .565-19.25 0-19.25C-.565-19.25-1.041-18.764-1.171-18.105C-1.171-18.105-1.69-15.478-1.69-15.478C-2.47-11.532-2.45-9.558-3.173-7.957C-3.813-6.542-6.375-1.562-6.375 0C-6.375 1.562-3.813 6.542-3.173 7.957C-2.45 9.558-2.47 11.532-1.69 15.478C-1.69 15.478-1.171 18.104-1.171 18.104C-1.041 18.763-.565 19.25 0 19.25C.565 19.25 1.04 18.764 1.17 18.105C1.17 18.105 1.69 15.478 1.69 15.478C2.47 11.532 2.45 9.558 3.173 7.957C3.813 6.542 6.375 1.688 6.375 0C6.375-1.688 3.813-6.542 3.173-7.957C2.45-9.558 2.47-11.532 1.69-15.478C1.69-15.478 1.17-18.106 1.17-18.106Z"></path></g></g></g></g><g mask="url(#mask_0)"><g opacity="0"><animate attributeName="opacity" dur="3.500s" repeatCount="indefinite" calcMode="spline" keyTimes="0;.429;.5;.871;.995;1" values="0;0;1;1;0;0" keySplines="0 0 1 1;.333 0 .667 1;.333 0 .667 1;.333 0 .667 1;0 0 1 1" /><g transform="matrix(.1 0 0 .1 -51 -9)"><g transform="translate(0 540)"><animateTransform attributeName="transform" type="translate" dur="3.500s" repeatCount="indefinite" calcMode="spline" keyTimes="0;.429;.439;.857;1" values="0 540;1920 540;0 540;1920 540;1920 540" keySplines=".167 .167 .833 .833;.167 .167 .833 .833;.167 .167 .833 .833;0 0 1 1" /><g transform="translate(-1920 -540)"><g transform="translate(1936 540)"><g transform="translate(-16 0)"><g fill="url(#grad_1)"><path d="M-1920-540L1920-540Q1920-540 1920-540L1920 540Q1920 540 1920 540L-1920 540Q-1920 540-1920 540L-1920-540Q-1920-540-1920-540Z"></path></g></g></g></g></g></g></g></g></g></g></g></g></svg>